<svg xmlns="http://www.w3.org/2000/svg" xmlns:xlink="http://www.w3.org/1999/xlink" width="500" zoomAndPan="magnify" viewBox="0 0 375 374.999991" height="500" preserveAspectRatio="xMidYMid meet" version="1.0"><defs><g/></defs><rect x="-37.5" width="450" fill="#ffffff" y="-37.499999" height="449.999989" fill-opacity="1"/><rect x="-37.5" width="450" fill="#ffffff" y="-37.499999" height="449.999989" fill-opacity="1"/><g fill="#4f46e5" fill-opacity="1"><g transform="translate(62.876069, 304.409096)"><g><path d="M 228.453125 -8.265625 C 228.453125 -6.054688 227.691406 -4.125 226.171875 -2.46875 C 224.660156 -0.820312 222.664062 0 220.1875 0 L 157.8125 0 C 152.851562 0 150.097656 -2.476562 149.546875 -7.4375 L 145.421875 -57.828125 L 83.03125 -45.4375 L 73.953125 -7.4375 C 72.847656 -3.300781 70.09375 -1.234375 65.6875 -1.234375 L 4.546875 -2.484375 C 1.785156 -2.484375 -0.347656 -3.515625 -1.859375 -5.578125 C -3.367188 -7.640625 -3.851562 -10.1875 -3.3125 -13.21875 C 3.570312 -39.101562 13.078125 -71.601562 25.203125 -110.71875 C 31.535156 -131.375 39.9375 -154.921875 50.40625 -181.359375 C 60.039062 -205.867188 72.984375 -237.125 89.234375 -275.125 C 90.335938 -277.601562 92.398438 -279.257812 95.421875 -280.09375 L 104.109375 -281.734375 C 112.367188 -283.390625 118.703125 -284.492188 123.109375 -285.046875 C 125.585938 -285.597656 129.71875 -285.875 135.5 -285.875 C 140.726562 -285.875 144.582031 -285.734375 147.0625 -285.453125 C 160.28125 -284.359375 170.882812 -274.859375 178.875 -256.953125 C 181.351562 -250.347656 184.242188 -240.847656 187.546875 -228.453125 C 191.128906 -213.578125 194.4375 -198.425781 197.46875 -183 L 228.453125 -9.921875 Z M 99.140625 -267.6875 L 99.140625 -270.171875 L 97.5 -270.171875 L 97.5 -267.6875 Z M 149.125 -256.953125 L 149.125 -260.265625 L 147.890625 -260.265625 L 147.890625 -256.953125 Z M 145.828125 -249.9375 C 146.378906 -251.03125 146.65625 -252.128906 146.65625 -253.234375 C 145.28125 -253.234375 144.59375 -253.375 144.59375 -253.65625 L 144.59375 -251.171875 Z M 97.90625 -251.578125 L 97.90625 -246.21875 C 97.90625 -247.3125 98.59375 -248.960938 99.96875 -251.171875 L 98.734375 -251.171875 Z M 152.4375 -250.34375 C 152.988281 -250.894531 153.398438 -251.171875 153.671875 -251.171875 L 149.125 -251.578125 L 149.125 -249.9375 C 149.40625 -249.65625 149.546875 -249.238281 149.546875 -248.6875 L 151.203125 -248.6875 C 151.203125 -248.96875 151.613281 -249.519531 152.4375 -250.34375 Z M 149.125 -248.6875 L 149.125 -249.515625 L 148.3125 -251.171875 L 148.3125 -249.9375 Z M 156.984375 -246.625 C 155.878906 -246.625 154.914062 -245.660156 154.09375 -243.734375 L 154.921875 -242.90625 L 160.28125 -242.90625 L 161.9375 -243.734375 C 160.5625 -244.554688 159.875 -245.382812 159.875 -246.21875 L 160.703125 -247.453125 C 159.046875 -246.898438 157.804688 -246.625 156.984375 -246.625 Z M 155.75 -235.46875 C 154.644531 -235.46875 154.09375 -234.914062 154.09375 -233.8125 C 154.644531 -233.269531 155.332031 -233 156.15625 -233 C 156.425781 -233 157.113281 -232.722656 158.21875 -232.171875 C 158.769531 -232.722656 159.046875 -233.132812 159.046875 -233.40625 L 159.453125 -234.234375 C 158.078125 -235.054688 156.84375 -235.46875 155.75 -235.46875 Z M 122.28125 -231.75 L 122.6875 -233 L 122.28125 -233 L 121.453125 -232.171875 Z M 126.828125 -227.625 L 128.890625 -227.625 C 129.160156 -227.34375 129.429688 -227.269531 129.703125 -227.40625 C 129.984375 -227.550781 130.265625 -227.625 130.546875 -227.625 C 130.546875 -228.726562 130.269531 -229.554688 129.71875 -230.109375 C 129.4375 -230.109375 129.160156 -230.035156 128.890625 -229.890625 C 128.617188 -229.753906 128.34375 -229.6875 128.0625 -229.6875 L 126.40625 -229.6875 Z M 162.765625 -222.25 C 162.765625 -221.976562 162.078125 -221.566406 160.703125 -221.015625 C 160.148438 -221.015625 159.875 -220.601562 159.875 -219.78125 C 159.875 -219.5 160.148438 -219.082031 160.703125 -218.53125 L 163.171875 -218.53125 C 164.273438 -219.082031 164.828125 -219.632812 164.828125 -220.1875 C 164.828125 -221.5625 164.140625 -222.25 162.765625 -222.25 Z M 71.875 -206.140625 C 72.15625 -206.691406 71.8125 -206.550781 70.84375 -205.71875 C 69.882812 -204.894531 69.40625 -204.347656 69.40625 -204.078125 C 69.40625 -203.253906 69.75 -202.289062 70.4375 -201.1875 C 71.125 -200.082031 71.601562 -199.53125 71.875 -199.53125 C 72.15625 -200.351562 72.296875 -201.457031 72.296875 -202.84375 C 72.296875 -204.488281 72.15625 -205.585938 71.875 -206.140625 Z M 100.390625 -199.9375 C 100.390625 -199.9375 100.457031 -200.003906 100.59375 -200.140625 C 100.726562 -200.285156 100.9375 -200.359375 101.21875 -200.359375 C 102.039062 -200.078125 102.585938 -200.210938 102.859375 -200.765625 L 100.796875 -201.59375 C 100.523438 -201.59375 100.390625 -201.316406 100.390625 -200.765625 Z M 71.46875 -189.203125 L 73.125 -189.203125 L 73.125 -194.15625 L 71.46875 -193.75 Z M 119.796875 -192.09375 C 117.597656 -192.09375 115.945312 -191.128906 114.84375 -189.203125 C 115.394531 -187.273438 116.082031 -186.171875 116.90625 -185.890625 C 117.738281 -185.617188 118.976562 -185.894531 120.625 -186.71875 L 121.875 -190.03125 L 121.453125 -190.859375 C 121.453125 -191.128906 121.175781 -191.539062 120.625 -192.09375 Z M 164.421875 -190.859375 L 167.3125 -190.859375 L 167.3125 -191.6875 L 164.421875 -191.6875 Z M 168.96875 -184.25 C 168.96875 -185.625 168.140625 -186.3125 166.484375 -186.3125 L 166.0625 -185.078125 L 166.484375 -184.25 Z M 133.015625 -138.8125 C 131.921875 -147.625 130.957031 -154.234375 130.125 -158.640625 C 127.925781 -170.203125 126.140625 -178.875 124.765625 -184.65625 L 104.515625 -118.15625 L 135.5 -118.96875 Z M 115.25 -178.875 L 116.078125 -178.46875 L 117.328125 -181.765625 L 116.5 -182.1875 Z M 155.328125 -178.875 L 156.15625 -179.296875 L 155.328125 -180.109375 L 154.09375 -179.703125 Z M 103.6875 -154.921875 C 104.519531 -155.472656 105.414062 -156.363281 106.375 -157.59375 C 107.34375 -158.832031 107.960938 -159.867188 108.234375 -160.703125 L 109.0625 -164 L 113.1875 -172.6875 L 111.125 -173.5 L 109.0625 -171.859375 C 107.957031 -170.753906 107.269531 -170.203125 107 -170.203125 C 105.625 -164.972656 104.9375 -162.492188 104.9375 -162.765625 C 104.101562 -160.835938 103.550781 -159.875 103.28125 -159.875 C 103.28125 -159.320312 102.863281 -158.769531 102.03125 -158.21875 C 101.488281 -157.664062 101.078125 -156.703125 100.796875 -155.328125 L 97.90625 -146.234375 L 96.25 -140.453125 C 95.425781 -137.972656 94.1875 -135.769531 92.53125 -133.84375 C 90.882812 -131.914062 89.851562 -130.265625 89.4375 -128.890625 C 89.019531 -127.515625 88.8125 -126.6875 88.8125 -126.40625 C 88.269531 -125.3125 88 -124.070312 88 -122.6875 C 87.71875 -121.039062 86.890625 -119.113281 85.515625 -116.90625 C 84.410156 -114.707031 83.722656 -113.054688 83.453125 -111.953125 C 83.453125 -110.023438 83.726562 -109.0625 84.28125 -109.0625 C 85.101562 -108.78125 85.789062 -108.78125 86.34375 -109.0625 C 86.34375 -109.0625 86.753906 -109.472656 87.578125 -110.296875 C 88.679688 -112.773438 89.507812 -115.117188 90.0625 -117.328125 C 90.332031 -119.804688 91.296875 -122.007812 92.953125 -123.9375 C 92.953125 -124.757812 93.773438 -126 95.421875 -127.65625 L 97.078125 -132.1875 C 97.628906 -133.019531 98.457031 -135.222656 99.5625 -138.796875 C 100.664062 -142.378906 102.039062 -146.097656 103.6875 -149.953125 Z M 160.703125 -164.421875 C 160.703125 -164.421875 160.769531 -164.488281 160.90625 -164.625 C 161.039062 -164.757812 161.109375 -164.828125 161.109375 -164.828125 L 158.21875 -165.25 L 158.21875 -163.59375 L 160.703125 -163.59375 Z M 168.96875 -160.703125 L 166.484375 -161.53125 L 166.484375 -160.703125 L 168.96875 -159.875 Z M 149.125 -158.640625 C 149.40625 -158.085938 149.820312 -157.8125 150.375 -157.8125 C 150.925781 -157.8125 151.203125 -158.085938 151.203125 -158.640625 Z M 170.609375 -144.171875 C 171.992188 -144.171875 172.6875 -144.722656 172.6875 -145.828125 Z M 144.171875 -142.9375 C 144.171875 -143.207031 143.894531 -143.617188 143.34375 -144.171875 L 141.703125 -144.59375 L 141.703125 -142.9375 Z M 159.046875 -138.8125 C 158.773438 -141.007812 157.125 -142.382812 154.09375 -142.9375 C 153.257812 -142.65625 152.84375 -141.828125 152.84375 -140.453125 L 155.328125 -140.453125 C 153.953125 -139.628906 153.816406 -138.664062 154.921875 -137.5625 L 158.640625 -137.5625 L 158.640625 -138.8125 Z M 169.78125 -141.28125 C 171.4375 -141.28125 172.265625 -141.554688 172.265625 -142.109375 C 171.992188 -142.109375 171.785156 -142.175781 171.640625 -142.3125 C 171.503906 -142.445312 171.4375 -142.65625 171.4375 -142.9375 L 170.609375 -142.9375 C 170.054688 -142.9375 169.78125 -142.660156 169.78125 -142.109375 Z M 164.421875 -141.28125 C 164.972656 -140.726562 165.382812 -140.453125 165.65625 -140.453125 L 166.484375 -141.703125 C 166.484375 -141.972656 165.65625 -142.109375 164 -142.109375 Z M 169.78125 -136.734375 C 170.882812 -136.179688 171.710938 -135.90625 172.265625 -135.90625 C 173.640625 -135.90625 175.015625 -136.320312 176.390625 -137.15625 C 175.296875 -138.257812 174.195312 -138.8125 173.09375 -138.8125 L 169.78125 -138.8125 Z M 158.640625 -131.78125 C 159.734375 -131.78125 160.421875 -131.644531 160.703125 -131.375 L 163.171875 -131.375 L 163.171875 -133.4375 L 161.9375 -133.84375 C 161.664062 -134.125 161.253906 -134.265625 160.703125 -134.265625 C 159.328125 -133.710938 158.640625 -132.882812 158.640625 -131.78125 Z M 142.109375 -133.015625 L 142.109375 -132.1875 L 145.421875 -132.1875 L 145.421875 -133.015625 Z M 178.46875 -131.375 C 178.1875 -132.46875 177.769531 -133.015625 177.21875 -133.015625 L 173.09375 -133.015625 C 171.71875 -131.921875 170.613281 -131.164062 169.78125 -130.75 C 168.957031 -130.332031 168.546875 -129.988281 168.546875 -129.71875 C 168.546875 -128.613281 169.785156 -126.132812 172.265625 -122.28125 L 178.046875 -122.28125 L 179.703125 -122.6875 C 178.878906 -124.070312 177.914062 -124.765625 176.8125 -124.765625 C 175.707031 -124.765625 174.332031 -125.585938 172.6875 -127.234375 C 174.613281 -127.785156 175.710938 -128.335938 175.984375 -128.890625 C 176.253906 -129.710938 177.082031 -130.539062 178.46875 -131.375 Z M 77.671875 -131.78125 L 76.84375 -128.0625 C 76.84375 -126.957031 77.253906 -126.128906 78.078125 -125.578125 C 78.898438 -126.960938 79.3125 -128.066406 79.3125 -128.890625 L 79.3125 -131.78125 Z M 159.453125 -129.71875 L 159.046875 -130.546875 L 156.15625 -130.546875 L 156.15625 -128.890625 L 158.21875 -127.234375 L 158.21875 -127.65625 L 159.046875 -128.0625 L 159.875 -128.0625 Z M 164.421875 -127.65625 C 164.421875 -127.65625 164.347656 -127.722656 164.203125 -127.859375 C 164.066406 -127.992188 164 -128.0625 164 -128.0625 L 163.171875 -128.0625 L 164 -123.109375 C 164.832031 -124.210938 165.382812 -125.585938 165.65625 -127.234375 Z M 154.5 -125.578125 C 153.945312 -125.859375 153.328125 -125.925781 152.640625 -125.78125 C 151.953125 -125.644531 151.472656 -125.578125 151.203125 -125.578125 L 152.4375 -123.515625 C 152.988281 -123.796875 153.816406 -123.9375 154.921875 -123.9375 L 157.8125 -123.515625 C 158.363281 -123.515625 158.984375 -123.722656 159.671875 -124.140625 C 160.359375 -124.554688 160.703125 -125.035156 160.703125 -125.578125 Z M 150.375 -121.046875 L 149.953125 -119.796875 L 150.78125 -119.390625 L 151.203125 -121.046875 Z M 156.15625 -115.25 C 156.425781 -115.53125 156.5625 -115.945312 156.5625 -116.5 L 154.09375 -116.90625 L 153.265625 -116.078125 L 152.84375 -115.25 L 155.75 -114.4375 C 155.75 -114.976562 155.882812 -115.25 156.15625 -115.25 Z M 149.546875 -115.25 C 150.648438 -115.25 150.925781 -115.523438 150.375 -116.078125 Z M 172.6875 -110.71875 C 172.6875 -110.988281 172.269531 -111.535156 171.4375 -112.359375 L 170.203125 -111.953125 C 169.921875 -111.953125 169.78125 -111.816406 169.78125 -111.546875 L 172.265625 -110.71875 Z M 168.96875 -104.9375 C 168.414062 -105.476562 168.140625 -106.300781 168.140625 -107.40625 C 167.585938 -108.507812 167.3125 -109.335938 167.3125 -109.890625 C 164.832031 -111.535156 162.628906 -112.222656 160.703125 -111.953125 C 160.703125 -111.398438 161.113281 -111.125 161.9375 -111.125 C 163.039062 -110.851562 164.003906 -109.613281 164.828125 -107.40625 L 164.828125 -104.9375 Z M 147.0625 -109.0625 L 147.0625 -107.40625 L 148.3125 -107.40625 L 148.3125 -109.0625 Z M 185.90625 -104.109375 L 185.90625 -104.515625 L 183.421875 -104.9375 L 183.421875 -104.109375 Z M 156.15625 -102.03125 L 157.8125 -102.03125 L 157.8125 -104.109375 L 156.15625 -104.109375 Z M 147.0625 -100.390625 L 147.0625 -101.21875 L 145.828125 -101.21875 L 145.828125 -100.390625 Z M 131.375 -99.140625 L 131.375 -98.3125 L 133.4375 -98.3125 L 133.4375 -99.140625 Z M 142.109375 -92.53125 C 142.378906 -92.8125 142.515625 -93.503906 142.515625 -94.609375 C 141.972656 -94.609375 141.007812 -94.191406 139.625 -93.359375 L 141.28125 -93.359375 Z M 155.75 -91.703125 C 154.363281 -90.328125 153.671875 -89.640625 153.671875 -89.640625 C 155.328125 -88.816406 156.707031 -88.40625 157.8125 -88.40625 C 159.738281 -89.78125 160.703125 -90.878906 160.703125 -91.703125 C 160.703125 -91.984375 160.285156 -92.535156 159.453125 -93.359375 C 158.628906 -93.359375 158.21875 -93.632812 158.21875 -94.1875 Z M 164.421875 -80.140625 L 166.484375 -80.140625 L 166.484375 -80.96875 L 164.421875 -80.96875 Z M 159.046875 -80.140625 C 159.046875 -78.765625 159.875 -77.664062 161.53125 -76.84375 L 161.53125 -80.140625 Z M 175.15625 -77.25 C 175.15625 -76.695312 175.5 -75.9375 176.1875 -74.96875 C 176.875 -74.007812 177.769531 -73.53125 178.875 -73.53125 C 180.25 -73.53125 181.078125 -73.671875 181.359375 -73.953125 C 181.359375 -73.953125 182.179688 -74.085938 183.828125 -74.359375 C 183.554688 -74.910156 183.144531 -75.1875 182.59375 -75.1875 L 180.9375 -76.421875 C 180.664062 -76.703125 180.53125 -77.941406 180.53125 -80.140625 C 180.25 -79.035156 179.5625 -78.484375 178.46875 -78.484375 Z M 82.625 -76.84375 L 82.625 -74.765625 L 87.171875 -74.765625 L 87.171875 -76.84375 Z M 77.25 -68.984375 C 76.695312 -70.085938 76.421875 -70.914062 76.421875 -71.46875 C 73.671875 -72.84375 72.019531 -73.53125 71.46875 -73.53125 C 70.09375 -73.53125 69.0625 -73.117188 68.375 -72.296875 C 67.6875 -71.472656 67.34375 -70.785156 67.34375 -70.234375 C 67.34375 -69.398438 67.890625 -68.5 68.984375 -67.53125 C 70.085938 -66.570312 71.328125 -66.09375 72.703125 -66.09375 C 73.253906 -66.09375 73.671875 -66.234375 73.953125 -66.515625 L 78.078125 -66.515625 Z M 147.0625 -73.53125 L 147.0625 -71.875 L 148.3125 -71.875 L 148.3125 -73.53125 Z M 193.75 -72.296875 L 193.75 -73.125 L 192.09375 -73.125 L 192.09375 -72.296875 Z M 151.609375 -71.875 C 152.710938 -71.601562 153.265625 -71.191406 153.265625 -70.640625 L 157.390625 -70.640625 L 157.390625 -71.875 Z M 131.375 -71.46875 L 130.125 -71.0625 L 130.546875 -70.234375 L 131.78125 -70.640625 Z M 200.359375 -14.875 C 201.179688 -14.875 201.867188 -15.148438 202.421875 -15.703125 L 200.765625 -25.609375 L 199.125 -35.53125 L 197.46875 -37.59375 L 196.640625 -39.65625 C 196.640625 -40.476562 197.328125 -41.441406 198.703125 -42.546875 C 196.222656 -43.921875 195.125 -45.160156 195.40625 -46.265625 C 195.957031 -47.921875 196.234375 -49.023438 196.234375 -49.578125 C 196.234375 -51.222656 195.679688 -53.007812 194.578125 -54.9375 C 193.742188 -56.320312 193.328125 -57.285156 193.328125 -57.828125 C 193.328125 -58.929688 193.742188 -59.484375 194.578125 -59.484375 C 194.847656 -59.484375 194.984375 -59.898438 194.984375 -60.734375 C 194.984375 -61.828125 194.570312 -63.203125 193.75 -64.859375 L 190.859375 -62.375 L 187.96875 -60.3125 L 186.71875 -61.140625 L 186.71875 -65.265625 C 186.71875 -66.648438 187.957031 -67.34375 190.4375 -67.34375 L 192.09375 -66.09375 L 192.09375 -69.40625 C 191.269531 -69.957031 190.164062 -70.4375 188.78125 -70.84375 C 187.40625 -71.257812 186.445312 -71.46875 185.90625 -71.46875 C 184.519531 -71.46875 182.863281 -70.984375 180.9375 -70.015625 C 179.007812 -69.054688 178.046875 -68.023438 178.046875 -66.921875 C 178.046875 -66.648438 178.320312 -66.238281 178.875 -65.6875 L 180.53125 -64.4375 C 179.707031 -63.613281 179.707031 -62.648438 180.53125 -61.546875 L 182.1875 -60.3125 C 182.457031 -60.3125 182.660156 -60.171875 182.796875 -59.890625 C 182.929688 -59.617188 183 -59.484375 183 -59.484375 C 182.175781 -58.929688 181.210938 -58.65625 180.109375 -58.65625 C 177.628906 -58.65625 176.390625 -57.96875 176.390625 -56.59375 C 175.847656 -54.664062 175.578125 -53.703125 175.578125 -53.703125 C 176.117188 -53.984375 176.734375 -53.984375 177.421875 -53.703125 C 178.117188 -53.429688 178.328125 -53.019531 178.046875 -52.46875 C 178.046875 -51.914062 177.769531 -51.640625 177.21875 -51.640625 C 176.945312 -51.640625 176.8125 -51.5 176.8125 -51.21875 C 176.8125 -50.675781 176.671875 -50.265625 176.390625 -49.984375 L 175.578125 -48.328125 L 175.578125 -44.609375 C 175.847656 -44.335938 177.289062 -43.648438 179.90625 -42.546875 C 182.519531 -41.441406 182.585938 -40.34375 180.109375 -39.25 C 180.941406 -38.96875 182.597656 -38.828125 185.078125 -38.828125 C 185.898438 -38.828125 186.585938 -38.96875 187.140625 -39.25 L 189.609375 -39.25 L 189.609375 -33.46875 L 189.203125 -33.46875 L 189.203125 -33.046875 L 188.796875 -33.046875 L 190.03125 -31.8125 C 190.851562 -30.976562 191.265625 -30.5625 191.265625 -30.5625 C 191.265625 -30.019531 191.539062 -29.75 192.09375 -29.75 C 192.09375 -29.75 192.503906 -29.332031 193.328125 -28.5 L 193.75 -24.78125 C 194.300781 -23.40625 195.265625 -22.304688 196.640625 -21.484375 C 196.640625 -20.929688 196.503906 -20.519531 196.234375 -20.25 L 196.234375 -19.421875 C 196.234375 -18.867188 196.78125 -17.972656 197.875 -16.734375 C 198.976562 -15.492188 199.804688 -14.875 200.359375 -14.875 Z M 44.609375 -64.4375 C 45.441406 -65.269531 45.03125 -65.820312 43.375 -66.09375 L 43.375 -65.265625 Z M 62.375 -57.828125 C 62.925781 -58.378906 62.789062 -59.070312 61.96875 -59.90625 C 61.414062 -59.351562 61.140625 -58.660156 61.140625 -57.828125 C 61.140625 -57.554688 61.414062 -57.421875 61.96875 -57.421875 C 62.238281 -57.421875 62.375 -57.554688 62.375 -57.828125 Z M 172.265625 -53.703125 C 172.546875 -53.703125 172.6875 -54.113281 172.6875 -54.9375 L 169.78125 -54.9375 C 169.78125 -54.113281 169.921875 -53.703125 170.203125 -53.703125 C 170.203125 -53.703125 170.613281 -53.289062 171.4375 -52.46875 C 171.4375 -52.738281 171.503906 -52.941406 171.640625 -53.078125 C 171.785156 -53.222656 171.992188 -53.429688 172.265625 -53.703125 Z M 52.46875 -50.40625 L 53.296875 -50.8125 L 53.296875 -52.875 C 53.296875 -53.707031 52.46875 -54.125 50.8125 -54.125 L 49.984375 -53.703125 C 49.984375 -53.703125 49.914062 -53.632812 49.78125 -53.5 C 49.644531 -53.363281 49.578125 -53.296875 49.578125 -53.296875 L 49.578125 -51.640625 Z M 152.84375 -53.703125 L 152.84375 -52.046875 L 155.75 -52.046875 L 155.75 -53.703125 Z M 163.171875 -48.75 C 163.171875 -49.570312 162.828125 -50.050781 162.140625 -50.1875 C 161.453125 -50.332031 160.972656 -50.40625 160.703125 -50.40625 L 160.703125 -48.75 Z M 50.8125 -43.796875 C 50.8125 -44.066406 51.015625 -44.335938 51.421875 -44.609375 C 51.835938 -44.890625 52.1875 -45.164062 52.46875 -45.4375 L 55.359375 -46.265625 L 55.359375 -47.921875 C 54.804688 -48.472656 54.394531 -48.75 54.125 -48.75 L 52.46875 -49.984375 C 51.363281 -47.503906 49.160156 -46.265625 45.859375 -46.265625 C 45.859375 -45.710938 46.269531 -45.023438 47.09375 -44.203125 C 47.914062 -43.378906 48.742188 -42.96875 49.578125 -42.96875 C 49.847656 -42.96875 50.257812 -43.242188 50.8125 -43.796875 Z M 158.21875 -45.859375 C 157.113281 -46.128906 156.425781 -46.40625 156.15625 -46.6875 L 156.5625 -43.796875 L 160.703125 -44.609375 Z M 67.34375 -35.53125 C 67.882812 -35.800781 68.15625 -36.351562 68.15625 -37.1875 L 67.34375 -38 C 66.789062 -38 66.515625 -37.863281 66.515625 -37.59375 L 65.6875 -37.59375 L 64.03125 -37.1875 L 65.6875 -35.9375 Z M 49.984375 -33.046875 C 49.710938 -33.046875 49.300781 -33.25 48.75 -33.65625 C 48.195312 -34.070312 47.644531 -34.421875 47.09375 -34.703125 C 45.71875 -34.703125 45.03125 -34.148438 45.03125 -33.046875 C 45.300781 -32.773438 46.125 -32.773438 47.5 -33.046875 Z M 54.9375 -31.390625 C 55.769531 -32.222656 56.320312 -32.640625 56.59375 -32.640625 C 56.59375 -33.734375 56.039062 -34.421875 54.9375 -34.703125 C 53.289062 -33.878906 52.46875 -33.328125 52.46875 -33.046875 Z M 165.65625 -31.390625 C 165.65625 -31.941406 165.101562 -32.769531 164 -33.875 L 161.9375 -32.640625 L 161.109375 -31.390625 Z M 169.78125 -11.984375 C 169.78125 -11.984375 169.847656 -12.050781 169.984375 -12.1875 C 170.128906 -12.320312 170.203125 -12.390625 170.203125 -12.390625 C 169.378906 -14.046875 168.96875 -15.425781 168.96875 -16.53125 L 164.828125 -16.53125 C 165.378906 -15.425781 166.066406 -14.390625 166.890625 -13.421875 C 167.722656 -12.460938 168.550781 -11.707031 169.375 -11.15625 Z M 169.78125 -11.984375 "/></g></g></g></svg>